<svg width="73" height="73" viewBox="0 0 73 73" fill="none" xmlns="http://www.w3.org/2000/svg">
<path fill-rule="evenodd" clip-rule="evenodd" d="M36.4612 0.299154C16.3318 0.299154 0.009855 16.5595 0.009855 36.6184C0.009855 56.6773 16.3301 72.9376 36.4612 72.9376C56.5939 72.9376 72.9126 56.6773 72.9126 36.6184C72.9126 16.5595 56.5939 0.299154 36.4612 0.299154ZM36.4612 11.159C43.1218 11.159 48.5193 16.5387 48.5193 23.1723C48.5193 29.8075 43.1218 35.1856 36.4612 35.1856C29.8036 35.1856 24.4064 29.8075 24.4064 23.1723C24.4064 16.5387 29.8036 11.159 36.4612 11.159ZM36.4531 63.442C29.81 63.442 23.7257 61.0311 19.0331 57.0411C17.8897 56.0695 17.23 54.6448 17.23 53.15C17.23 46.4221 22.6947 41.0376 29.4483 41.0376H43.4772C50.2325 41.0376 55.6761 46.4221 55.6761 53.15C55.6761 54.6464 55.0197 56.0679 53.875 57.0394C49.1838 61.0311 43.098 63.442 36.4531 63.442Z" fill="#858BFD"/>
</svg>
